HIERARCHY
ROOT reference
{
  OFFSET 0 0 0
  CHANNELS 6 Xposition Yposition Zposition Zrotation Xrotation Yrotation
  JOINT Hips
  {
    OFFSET 339.145 90.8604 236.464
    CHANNELS 3 Zrotation Xrotation Yrotation
    JOINT RightUpLeg
    {
      OFFSET -9.24113 -1.522 -0.0337757
      CHANNELS 3 Zrotation Xrotation Yrotation
      JOINT RightLeg
      {
        OFFSET 0.0344394 -41.8985 0.100154
        CHANNELS 3 Zrotation Xrotation Yrotation
        JOINT RightFoot
        {
          OFFSET -0.415571 -42.0751 0.023027
          CHANNELS 3 Zrotation Xrotation Yrotation
          End Site
          {
            OFFSET 0 -7.69 17.5
          }
        }
      }
    }
    JOINT LeftUpLeg
    {
      OFFSET 9.30897 -1.67379 -0.0291548
      CHANNELS 3 Zrotation Xrotation Yrotation
      JOINT LeftLeg
      {
        OFFSET 0.0832755 -41.864 -0.14338
        CHANNELS 3 Zrotation Xrotation Yrotation
        JOINT LeftFoot
        {
          OFFSET 0.17151 -41.5225 0.735469
          CHANNELS 3 Zrotation Xrotation Yrotation
          End Site
          {
            OFFSET 0 -7.69 17.5
          }
        }
      }
    }
    JOINT Spine
    {
      OFFSET 0.00853273 14.2903 0.0777264
      CHANNELS 3 Zrotation Xrotation Yrotation
      JOINT Spine1
      {
        OFFSET 0.0173944 9.71323 0.029081
        CHANNELS 3 Zrotation Xrotation Yrotation
        JOINT Spine2
        {
          OFFSET 0.0412483 10.1247 -0.0145163
          CHANNELS 3 Zrotation Xrotation Yrotation
          JOINT Spine3
          {
            OFFSET 0.0279063 9.71793 0.00755232
            CHANNELS 3 Zrotation Xrotation Yrotation
            JOINT Neck
            {
              OFFSET 0.0852486 10.3712 0.0268485
              CHANNELS 3 Zrotation Xrotation Yrotation
              JOINT Head
              {
                OFFSET 0.0739267 9.48251 0.0332551
                CHANNELS 3 Zrotation Xrotation Yrotation
                End Site
                {
                  OFFSET 0 15.95 0
                }
              }
            }
            JOINT RightShoulder
            {
              OFFSET -3.14957 6.95772 0.0300988
              CHANNELS 3 Zrotation Xrotation Yrotation
              JOINT RightArm
              {
                OFFSET -12.7513 0.0411148 0.0791701
                CHANNELS 3 Zrotation Xrotation Yrotation
                JOINT RightForeArm
                {
                  OFFSET -26.4959 0.0361336 0.259434
                  CHANNELS 3 Zrotation Xrotation Yrotation
                  JOINT RightHand
                  {
                    OFFSET -25.9829 -0.0837334 0.191464
                    CHANNELS 3 Zrotation Xrotation Yrotation
                    JOINT RightHandThumb1
                    {
                      OFFSET -2.48905 0.190105 3.12053
                      CHANNELS 3 Zrotation Xrotation Yrotation
                      JOINT RightHandThumb2
                      {
                        OFFSET -3.68274 0 0
                        CHANNELS 3 Zrotation Xrotation Yrotation
                        JOINT RightHandThumb3
                        {
                          OFFSET -2.55832 0 0
                          CHANNELS 3 Zrotation Xrotation Yrotation
                          End Site
                          {
                            OFFSET -2.194 0 0
                          }
                        }
                      }
                    }
                    JOINT RightInHandIndex
                    {
                      OFFSET -3.22368 0.508421 1.97842
                      CHANNELS 3 Zrotation Xrotation Yrotation
                      JOINT RightHandIndex1
                      {
                        OFFSET -5.21684 -0.091368 0.999158
                        CHANNELS 3 Zrotation Xrotation Yrotation
                        JOINT RightHandIndex2
                        {
                          OFFSET -3.61937 0 0
                          CHANNELS 3 Zrotation Xrotation Yrotation
                          JOINT RightHandIndex3
                          {
                            OFFSET -2.0521 0 0
                            CHANNELS 3 Zrotation Xrotation Yrotation
                            End Site
                            {
                              OFFSET -1.805 0 0
                            }
                          }
                        }
                      }
                    }
                    JOINT RightInHandMiddle
                    {
                      OFFSET -3.38211 0.517263 0.756737
                      CHANNELS 3 Zrotation Xrotation Yrotation
                      JOINT RightHandMiddle1
                      {
                        OFFSET -5.17411 -0.084 0.313895
                        CHANNELS 3 Zrotation Xrotation Yrotation
                        JOINT RightHandMiddle2
                        {
                          OFFSET -3.94947 0 0
                          CHANNELS 3 Zrotation Xrotation Yrotation
                          JOINT RightHandMiddle3
                          {
                            OFFSET -2.47579 0 0
                            CHANNELS 3 Zrotation Xrotation Yrotation
                            End Site
                            {
                              OFFSET -1.975 0 0
                            }
                          }
                        }
                      }
                    }
                    JOINT RightInHandRing
                    {
                      OFFSET -3.36516 0.537895 -0.128947
                      CHANNELS 3 Zrotation Xrotation Yrotation
                      JOINT RightHandRing1
                      {
                        OFFSET -4.63474 -0.022105 -0.478947
                        CHANNELS 3 Zrotation Xrotation Yrotation
                        JOINT RightHandRing2
                        {
                          OFFSET -3.44238 0 0
                          CHANNELS 3 Zrotation Xrotation Yrotation
                          JOINT RightHandRing3
                          {
                            OFFSET -2.3881 0 0
                            CHANNELS 3 Zrotation Xrotation Yrotation
                            End Site
                            {
                              OFFSET -1.857 0 0
                            }
                          }
                        }
                      }
                    }
                    JOINT RightInHandPinky
                    {
                      OFFSET -3.16105 0.469368 -1.20179
                      CHANNELS 3 Zrotation Xrotation Yrotation
                      JOINT RightHandPinky1
                      {
                        OFFSET -4.14105 -0.022105 -1.09053
                        CHANNELS 3 Zrotation Xrotation Yrotation
                        JOINT RightHandPinky2
                        {
                          OFFSET -2.75653 0 0
                          CHANNELS 3 Zrotation Xrotation Yrotation
                          JOINT RightHandPinky3
                          {
                            OFFSET -1.74189 0 0
                            CHANNELS 3 Zrotation Xrotation Yrotation
                            End Site
                            {
                              OFFSET -1.645 0 0
                            }
                          }
                        }
                      }
                    }
                  }
                }
              }
            }
            JOINT LeftShoulder
            {
              OFFSET 3.25273 6.91522 -0.0295735
              CHANNELS 3 Zrotation Xrotation Yrotation
              JOINT LeftArm
              {
                OFFSET 12.7785 0.0134102 -0.0213482
                CHANNELS 3 Zrotation Xrotation Yrotation
                JOINT LeftForeArm
                {
                  OFFSET 26.5044 -0.0446277 0.0404034
                  CHANNELS 3 Zrotation Xrotation Yrotation
                  JOINT LeftHand
                  {
                    OFFSET 25.9955 -0.0467726 -0.0166804
                    CHANNELS 3 Zrotation Xrotation Yrotation
                    JOINT LeftHandThumb1
                    {
                      OFFSET 2.48905 0.190105 3.12053
                      CHANNELS 3 Zrotation Xrotation Yrotation
                      JOINT LeftHandThumb2
                      {
                        OFFSET 3.68274 0 0
                        CHANNELS 3 Zrotation Xrotation Yrotation
                        JOINT LeftHandThumb3
                        {
                          OFFSET 2.55832 0 0
                          CHANNELS 3 Zrotation Xrotation Yrotation
                          End Site
                          {
                            OFFSET 2.194 0 0
                          }
                        }
                      }
                    }
                    JOINT LeftInHandIndex
                    {
                      OFFSET 3.22368 0.508421 1.97842
                      CHANNELS 3 Zrotation Xrotation Yrotation
                      JOINT LeftHandIndex1
                      {
                        OFFSET 5.21684 -0.091368 0.999158
                        CHANNELS 3 Zrotation Xrotation Yrotation
                        JOINT LeftHandIndex2
                        {
                          OFFSET 3.61937 0 0
                          CHANNELS 3 Zrotation Xrotation Yrotation
                          JOINT LeftHandIndex3
                          {
                            OFFSET 2.0521 0 0
                            CHANNELS 3 Zrotation Xrotation Yrotation
                            End Site
                            {
                              OFFSET 1.805 0 0
                            }
                          }
                        }
                      }
                    }
                    JOINT LeftInHandMiddle
                    {
                      OFFSET 3.38211 0.517263 0.756737
                      CHANNELS 3 Zrotation Xrotation Yrotation
                      JOINT LeftHandMiddle1
                      {
                        OFFSET 5.17411 -0.084 0.313895
                        CHANNELS 3 Zrotation Xrotation Yrotation
                        JOINT LeftHandMiddle2
                        {
                          OFFSET 3.94947 0 0
                          CHANNELS 3 Zrotation Xrotation Yrotation
                          JOINT LeftHandMiddle3
                          {
                            OFFSET 2.47579 0 0
                            CHANNELS 3 Zrotation Xrotation Yrotation
                            End Site
                            {
                              OFFSET 1.975 0 0
                            }
                          }
                        }
                      }
                    }
                    JOINT LeftInHandRing
                    {
                      OFFSET 3.36516 0.537895 -0.128947
                      CHANNELS 3 Zrotation Xrotation Yrotation
                      JOINT LeftHandRing1
                      {
                        OFFSET 4.63474 -0.022105 -0.478947
                        CHANNELS 3 Zrotation Xrotation Yrotation
                        JOINT LeftHandRing2
                        {
                          OFFSET 3.44238 0 0
                          CHANNELS 3 Zrotation Xrotation Yrotation
                          JOINT LeftHandRing3
                          {
                            OFFSET 2.3881 0 0
                            CHANNELS 3 Zrotation Xrotation Yrotation
                            End Site
                            {
                              OFFSET 1.857 0 0
                            }
                          }
                        }
                      }
                    }
                    JOINT LeftInHandPinky
                    {
                      OFFSET 3.16105 0.469368 -1.20179
                      CHANNELS 3 Zrotation Xrotation Yrotation
                      JOINT LeftHandPinky1
                      {
                        OFFSET 4.14105 -0.022105 -1.09053
                        CHANNELS 3 Zrotation Xrotation Yrotation
                        JOINT LeftHandPinky2
                        {
                          OFFSET 2.75653 0 0
                          CHANNELS 3 Zrotation Xrotation Yrotation
                          JOINT LeftHandPinky3
                          {
                            OFFSET 1.74189 0 0
                            CHANNELS 3 Zrotation Xrotation Yrotation
                            End Site
                            {
                              OFFSET 1.645 0 0
                            }
                          }
                        }
                      }
                    }
                  }
                }
              }
            }
          }
        }
      }
    }
  }
}
MOTION
Frames: 2
Frame Time: 0.00833333
6.000000000000000000e+02 0.000000000000000000e+00 0.000000000000000000e+00 0.000000000000000000e+00 0.000000000000000000e+00 0.000000000000000000e+00 -3.471960794029556319e-02 8.238318193731193617e-02 9.124676644992334162e-02 -6.009825435428220453e-02 -1.084940420797020216e-01 -2.197347338719581600e-01 1.571395374139931663e-03 1.860084468902510890e-01 2.599488576310182708e-01 4.451615718837229063e-02 -1.406430882668248117e-01 -1.301246141623789709e-01 -1.487621142374071781e-01 -8.709049006291902373e-02 -2.084624804678266163e-01 7.317758187647184498e-02 -1.265051503899172931e-02 5.977096307401952302e-02 1.887735250580672985e-02 -5.794606524526368929e-02 1.196922253393337132e-03 1.000635258640000108e-01 3.514997355776226795e-03 -1.984252833614542633e-01 1.929860789058427187e-02 -2.549815960239604825e-03 -4.840526888203362105e-02 3.082461221978800500e-02 -1.688852687802758126e-03 -8.019127903922548817e-02 -4.794385703381831045e-03 -6.965794460801305946e-03 1.806212814002225789e-02 1.276888338300976797e-02 5.063557342350631651e-02 -2.057686925647401743e-01 -9.097824522990545504e-02 -2.234740683290928620e-01 4.975012760461184347e-01 -9.402412681089990232e-02 -2.083273375108047470e-02 3.187503365018121149e-01 1.108574518991090468e-01 -3.514993205297629597e-01 3.195704099812375354e-01 -4.038637175775611765e-01 3.401565216483881104e-01 -5.273919288451089926e-01 5.579579602441130104e-02 -3.349840142501856466e-01 3.690628976554737317e-01 0.000000000000000000e+00 0.000000000000000000e+00 0.000000000000000000e+00 3.819444959750919132e-16 1.303105502586279501e-15 0.000000000000000000e+00 -5.994026768164537498e-16 7.461686945430265764e-16 0.000000000000000000e+00 1.249354497156147026e-15 -7.323227993240809757e-17 4.586440338189484718e-16 0.000000000000000000e+00 0.000000000000000000e+00 0.000000000000000000e+00 0.000000000000000000e+00 9.301951437755777748e-17 -2.369457341630325161e-15 0.000000000000000000e+00 4.795097589190484742e-16 1.181563749281543678e-15 1.249354497156147026e-15 -7.323227993240809757e-17 4.586440338189484718e-16 0.000000000000000000e+00 3.147282763315350762e-17 1.345402715422106883e-15 0.000000000000000000e+00 1.449970040063403477e-15 -4.605980021134334008e-16 0.000000000000000000e+00 1.264275496450831885e-15 4.109088660147124258e-15 1.249354497156147026e-15 -7.323227993240809757e-17 4.586440338189484718e-16 0.000000000000000000e+00 0.000000000000000000e+00 0.000000000000000000e+00 0.000000000000000000e+00 -1.605976066254927851e-16 -1.558786889902822592e-15 0.000000000000000000e+00 8.283586260041113313e-16 2.681045661737777392e-15 1.249354497156147026e-15 -7.323227993240809757e-17 4.586440338189484718e-16 0.000000000000000000e+00 0.000000000000000000e+00 0.000000000000000000e+00 0.000000000000000000e+00 4.920064891057989705e-16 3.544612125913659328e-15 0.000000000000000000e+00 1.347094283351887324e-15 1.968513680121471801e-15 -6.622696788869802953e-02 3.478548865266304496e-03 -1.448964277302635661e-01 -1.772648086914951626e-01 -1.660248610000245595e-01 1.955163468893664491e-01 1.912580283919210200e-01 9.944035925202363013e-02 4.002925504804773493e-01 -1.053603017885345987e-02 -1.671269221470702004e-01 4.123567494815471024e-01 0.000000000000000000e+00 0.000000000000000000e+00 0.000000000000000000e+00 2.697365163383546963e-16 6.586330314820747550e-16 0.000000000000000000e+00 -1.656417714922533091e-15 1.135053346856411344e-15 0.000000000000000000e+00 9.254683346690708117e-16 5.680544803167392032e-16 -4.939542885800975903e-16 0.000000000000000000e+00 0.000000000000000000e+00 0.000000000000000000e+00 0.000000000000000000e+00 -3.279633829982121954e-16 -8.820925836934406749e-16 0.000000000000000000e+00 -6.197499381447464448e-16 -5.065123284739121880e-16 9.254683346690708117e-16 5.680544803167392032e-16 -4.939542885800975903e-16 0.000000000000000000e+00 -5.755025397418056480e-16 -7.107612334419628931e-17 0.000000000000000000e+00 -4.400048422620491468e-16 -1.727424307045526965e-15 0.000000000000000000e+00 -1.203699700197303451e-15 -8.431202507781460402e-16 9.254683346690708117e-16 5.680544803167392032e-16 -4.939542885800975903e-16 0.000000000000000000e+00 0.000000000000000000e+00 0.000000000000000000e+00 0.000000000000000000e+00 -4.157230568604878391e-16 -2.843037946189760531e-16 0.000000000000000000e+00 1.179248571707371341e-15 -6.898052891583346402e-16 9.254683346690708117e-16 5.680544803167392032e-16 -4.939542885800975903e-16 0.000000000000000000e+00 0.000000000000000000e+00 0.000000000000000000e+00 0.000000000000000000e+00 -5.837565455243159811e-16 -3.557763888244319789e-16 0.000000000000000000e+00 -6.684164932580115757e-16 7.088645495219199838e-17
6.000000000000000000e+02 0.000000000000000000e+00 0.000000000000000000e+00 0.000000000000000000e+00 0.000000000000000000e+00 0.000000000000000000e+00 -1.418443612089920376e-02 4.793611260937781504e-02 8.485622143570976939e-02 -6.647100771606526126e-02 -5.301445709910717480e-02 -1.767201708145008099e-01 -1.104186046548411015e-04 1.135897813293195585e-01 1.940980090701964478e-01 2.949242752764481487e-02 -1.018983375980173356e-01 -1.194842302028999992e-01 -1.054253202353698238e-01 -5.720842237876806735e-02 -1.526760059426697791e-01 4.403495818267221668e-02 -2.458099049008483430e-02 4.446305955559123890e-02 8.958568502237845149e-03 -6.633338889271797600e-03 -1.401773096381369980e-02 6.259947226494494421e-02 2.575590697195724327e-03 -1.304719862832710575e-01 1.238616503247729449e-02 -2.120422611826218873e-03 -3.178622346691435674e-02 1.960503531654455775e-02 -2.243102473437300938e-03 -5.217994652705723602e-02 -2.425370706749126280e-03 -2.999020299230945388e-03 9.404875163740602714e-03 8.020882649640388370e-03 3.002676237892651714e-02 -1.081463662810177168e-01 -4.621851312348813218e-02 -1.090218630246714698e-01 2.573738904422802065e-01 -7.274736141618487473e-02 -9.903449958340561354e-03 2.319214415905819227e-01 4.020847994623283350e-02 -2.116721736507666540e-01 1.785051900244054301e-01 -2.252199632368025450e-01 1.601940686565251071e-01 -2.968271669112806932e-01 2.709756624984159881e-02 -1.615267965298099739e-01 2.040450697637014310e-01 0.000000000000000000e+00 0.000000000000000000e+00 0.000000000000000000e+00 1.914914478792675523e-16 8.669714740101422619e-16 0.000000000000000000e+00 -3.719402501810708324e-16 4.737250071849709811e-16 0.000000000000000000e+00 8.617393156366569004e-16 -3.911364165076944293e-17 2.893967927460324187e-16 0.000000000000000000e+00 0.000000000000000000e+00 0.000000000000000000e+00 0.000000000000000000e+00 7.677643990151242903e-17 -1.750025564807923779e-15 0.000000000000000000e+00 3.326781449304480104e-16 8.902997924482891115e-16 8.617393156366569004e-16 -3.911364165076944293e-17 2.893967927460324187e-16 0.000000000000000000e+00 -8.615385818751323335e-19 8.569152715431158558e-16 0.000000000000000000e+00 9.647993009991315296e-16 -4.636284788274470897e-16 0.000000000000000000e+00 8.726979265598723927e-16 2.743522767704355949e-15 8.617393156366569004e-16 -3.911364165076944293e-17 2.893967927460324187e-16 0.000000000000000000e+00 0.000000000000000000e+00 0.000000000000000000e+00 0.000000000000000000e+00 -7.990523048396958876e-17 -1.199618929061221160e-15 0.000000000000000000e+00 5.752071411714296064e-16 1.809897315051260354e-15 8.617393156366569004e-16 -3.911364165076944293e-17 2.893967927460324187e-16 0.000000000000000000e+00 0.000000000000000000e+00 0.000000000000000000e+00 0.000000000000000000e+00 2.597118658067418607e-16 1.944615871943550915e-15 0.000000000000000000e+00 9.034734311816685130e-16 1.256451155727292998e-15 -3.658273449146377809e-02 -5.492502137975724397e-03 -1.001429874093119204e-01 -1.585956514452244170e-01 -9.167162078774215850e-02 1.778552518835437857e-01 6.586151964886718946e-02 -9.262965454777139299e-03 2.105254620910917696e-01 8.345589350656592784e-03 -1.835862780445042808e-01 2.987886897276930687e-01 0.000000000000000000e+00 0.000000000000000000e+00 0.000000000000000000e+00 1.852390357394948326e-17 5.287196094525684088e-16 0.000000000000000000e+00 -1.136108794555358409e-15 8.527909930168587244e-16 0.000000000000000000e+00 5.930058116326785066e-16 4.029889833189679814e-16 -4.069485395608222533e-16 0.000000000000000000e+00 0.000000000000000000e+00 0.000000000000000000e+00 0.000000000000000000e+00 -1.559801555474362809e-16 -7.574526053803254581e-16 0.000000000000000000e+00 -3.383762259325126016e-16 -3.922670006246170177e-16 5.930058116326785066e-16 4.029889833189679814e-16 -4.069485395608222533e-16 0.000000000000000000e+00 -3.934738459586472997e-16 -2.115682968880539375e-16 0.000000000000000000e+00 -2.590292823449613418e-16 -1.404269983289220470e-15 0.000000000000000000e+00 -7.738861589368759618e-16 -7.077404036505704579e-16 5.930058116326785066e-16 4.029889833189679814e-16 -4.069485395608222533e-16 0.000000000000000000e+00 0.000000000000000000e+00 0.000000000000000000e+00 0.000000000000000000e+00 -2.892377215923450815e-16 -4.004613977868869662e-16 0.000000000000000000e+00 8.874669241736158055e-16 -6.081102658341398316e-16 5.930058116326785066e-16 4.029889833189679814e-16 -4.069485395608222533e-16 0.000000000000000000e+00 0.000000000000000000e+00 0.000000000000000000e+00 0.000000000000000000e+00 -3.500332178638829013e-16 -3.768881501807637633e-16 0.000000000000000000e+00 -4.513951073742409697e-16 -4.700010222541014638e-17
